<mxfile host="app.diagrams.net" modified="2021-08-18T02:31:05.620Z" agent="5.0 (Windows NT 10.0; Win64; x64) AppleWebKit/537.36 (KHTML, like Gecko) Chrome/92.0.4515.159 Safari/537.36" etag="Zuu2ZfOS7yXZWkflda7Q" version="14.9.7" type="github">
  <diagram id="C5RBs43oDa-KdzZeNtuy" name="Page-1">
    <mxGraphModel dx="1630" dy="771" grid="1" gridSize="10" guides="1" tooltips="1" connect="1" arrows="1" fold="1" page="1" pageScale="1" pageWidth="827" pageHeight="1169" math="0" shadow="0">
      <root>
        <mxCell id="WIyWlLk6GJQsqaUBKTNV-0" />
        <mxCell id="WIyWlLk6GJQsqaUBKTNV-1" parent="WIyWlLk6GJQsqaUBKTNV-0" />
        <mxCell id="51aDSxTkQ22pYN6QrdHl-0" value="Scroller User" style="swimlane;" vertex="1" parent="WIyWlLk6GJQsqaUBKTNV-1">
          <mxGeometry x="30" y="40" width="230" height="80" as="geometry" />
        </mxCell>
        <mxCell id="51aDSxTkQ22pYN6QrdHl-1" value="stateMachine: ScrollerStateMachine" style="text;html=1;align=center;verticalAlign=middle;resizable=0;points=[];autosize=1;strokeColor=none;" vertex="1" parent="51aDSxTkQ22pYN6QrdHl-0">
          <mxGeometry x="10" y="40" width="210" height="20" as="geometry" />
        </mxCell>
        <mxCell id="51aDSxTkQ22pYN6QrdHl-2" value="" style="endArrow=classic;html=1;" edge="1" parent="WIyWlLk6GJQsqaUBKTNV-1">
          <mxGeometry width="50" height="50" relative="1" as="geometry">
            <mxPoint x="130" y="130" as="sourcePoint" />
            <mxPoint x="130" y="200" as="targetPoint" />
            <Array as="points">
              <mxPoint x="130" y="190" />
            </Array>
          </mxGeometry>
        </mxCell>
        <mxCell id="51aDSxTkQ22pYN6QrdHl-4" value="StateMachine" style="swimlane;" vertex="1" parent="WIyWlLk6GJQsqaUBKTNV-1">
          <mxGeometry x="30" y="210" width="230" height="200" as="geometry" />
        </mxCell>
        <mxCell id="51aDSxTkQ22pYN6QrdHl-6" value="gameRounData: ScrollGameRounData" style="text;html=1;align=center;verticalAlign=middle;resizable=0;points=[];autosize=1;strokeColor=none;" vertex="1" parent="51aDSxTkQ22pYN6QrdHl-4">
          <mxGeometry x="5" y="30" width="220" height="20" as="geometry" />
        </mxCell>
        <mxCell id="51aDSxTkQ22pYN6QrdHl-8" value="bindState()&lt;br&gt;{&lt;br&gt;&lt;span style=&quot;white-space: pre&quot;&gt;	&lt;/span&gt;createState() : State&lt;br&gt;}" style="text;html=1;align=center;verticalAlign=middle;resizable=0;points=[];autosize=1;strokeColor=none;" vertex="1" parent="51aDSxTkQ22pYN6QrdHl-4">
          <mxGeometry x="40" y="80" width="150" height="60" as="geometry" />
        </mxCell>
        <mxCell id="51aDSxTkQ22pYN6QrdHl-9" value="" style="endArrow=classic;html=1;" edge="1" parent="WIyWlLk6GJQsqaUBKTNV-1">
          <mxGeometry width="50" height="50" relative="1" as="geometry">
            <mxPoint x="270" y="320" as="sourcePoint" />
            <mxPoint x="330" y="320" as="targetPoint" />
          </mxGeometry>
        </mxCell>
        <mxCell id="51aDSxTkQ22pYN6QrdHl-10" value="State" style="swimlane;" vertex="1" parent="WIyWlLk6GJQsqaUBKTNV-1">
          <mxGeometry x="340" y="210" width="150" height="200" as="geometry" />
        </mxCell>
        <mxCell id="51aDSxTkQ22pYN6QrdHl-12" value="OnEnter()" style="text;html=1;align=center;verticalAlign=middle;resizable=0;points=[];autosize=1;strokeColor=none;" vertex="1" parent="51aDSxTkQ22pYN6QrdHl-10">
          <mxGeometry x="20" y="110" width="70" height="20" as="geometry" />
        </mxCell>
        <mxCell id="51aDSxTkQ22pYN6QrdHl-13" value="OnExit()" style="text;html=1;align=center;verticalAlign=middle;resizable=0;points=[];autosize=1;strokeColor=none;" vertex="1" parent="51aDSxTkQ22pYN6QrdHl-10">
          <mxGeometry x="20" y="140" width="60" height="20" as="geometry" />
        </mxCell>
        <mxCell id="51aDSxTkQ22pYN6QrdHl-11" value="init()&lt;br&gt;{&lt;br&gt;registerAction()&lt;br&gt;}" style="text;html=1;align=center;verticalAlign=middle;resizable=0;points=[];autosize=1;strokeColor=none;" vertex="1" parent="51aDSxTkQ22pYN6QrdHl-10">
          <mxGeometry x="10" y="40" width="100" height="60" as="geometry" />
        </mxCell>
        <mxCell id="51aDSxTkQ22pYN6QrdHl-14" value="createAction()" style="text;html=1;align=center;verticalAlign=middle;resizable=0;points=[];autosize=1;strokeColor=none;" vertex="1" parent="51aDSxTkQ22pYN6QrdHl-10">
          <mxGeometry x="20" y="170" width="90" height="20" as="geometry" />
        </mxCell>
        <mxCell id="51aDSxTkQ22pYN6QrdHl-15" value="" style="endArrow=classic;html=1;" edge="1" parent="WIyWlLk6GJQsqaUBKTNV-1">
          <mxGeometry width="50" height="50" relative="1" as="geometry">
            <mxPoint x="410" y="420" as="sourcePoint" />
            <mxPoint x="230" y="480" as="targetPoint" />
            <Array as="points">
              <mxPoint x="410" y="440" />
              <mxPoint x="230" y="440" />
            </Array>
          </mxGeometry>
        </mxCell>
        <mxCell id="51aDSxTkQ22pYN6QrdHl-16" value="Action(parentState: ScrollerBaseState)" style="swimlane;" vertex="1" parent="WIyWlLk6GJQsqaUBKTNV-1">
          <mxGeometry x="10" y="490" width="544" height="200" as="geometry" />
        </mxCell>
        <mxCell id="51aDSxTkQ22pYN6QrdHl-17" value="generatorContainer: GeneratorContainer" style="text;html=1;align=center;verticalAlign=middle;resizable=0;points=[];autosize=1;strokeColor=none;" vertex="1" parent="51aDSxTkQ22pYN6QrdHl-16">
          <mxGeometry x="11" y="40" width="230" height="20" as="geometry" />
        </mxCell>
        <mxCell id="51aDSxTkQ22pYN6QrdHl-19" value="resultGenerator:&amp;nbsp;generatorContainer.getTypedResultGenerator&lt;br&gt;&amp;nbsp; &amp;nbsp; &amp;nbsp; &amp;nbsp; &amp;nbsp; &amp;nbsp; &amp;nbsp; &amp;nbsp; &amp;nbsp; &amp;nbsp;&amp;lt;StateResultGenerator&amp;gt;(ResultGeneratorConfigurations.StateResult)&amp;nbsp;" style="text;html=1;align=center;verticalAlign=middle;resizable=0;points=[];autosize=1;strokeColor=none;" vertex="1" parent="51aDSxTkQ22pYN6QrdHl-16">
          <mxGeometry x="-40" y="85" width="450" height="30" as="geometry" />
        </mxCell>
        <mxCell id="51aDSxTkQ22pYN6QrdHl-18" value="calculator: IStateResultCalculator" style="text;html=1;align=center;verticalAlign=middle;resizable=0;points=[];autosize=1;strokeColor=none;" vertex="1" parent="51aDSxTkQ22pYN6QrdHl-16">
          <mxGeometry x="11" y="60" width="190" height="20" as="geometry" />
        </mxCell>
        <mxCell id="51aDSxTkQ22pYN6QrdHl-20" value="matchRule: ITriggerStateMatchRule" style="text;html=1;align=center;verticalAlign=middle;resizable=0;points=[];autosize=1;strokeColor=none;" vertex="1" parent="51aDSxTkQ22pYN6QrdHl-16">
          <mxGeometry x="11" y="120" width="210" height="20" as="geometry" />
        </mxCell>
      </root>
    </mxGraphModel>
  </diagram>
</mxfile>
